<?xml version="1.0" encoding="utf-8"?>
<!-- Generator: Adobe Illustrator 19.0.1, SVG Export Plug-In . SVG Version: 6.00 Build 0)  -->
<svg version="1.1" id="Layer_1" xmlns="http://www.w3.org/2000/svg" xmlns:xlink="http://www.w3.org/1999/xlink" x="0px" y="0px"
	 viewBox="0 0 150 150" style="enable-background:new 0 0 150 150;" xml:space="preserve">
<style type="text/css">
	.st0{fill:none;stroke:#373C44;stroke-width:2;stroke-linecap:round;stroke-linejoin:round;stroke-miterlimit:10;}
	.st1{fill:none;stroke:#373C44;stroke-width:2;stroke-miterlimit:10;}
	.st2{fill:#FFFFFF;stroke:#373C44;stroke-width:2;stroke-linecap:round;stroke-linejoin:round;stroke-miterlimit:10;}
</style>
<path class="st0" d="M127,73.1c3.1,24.9-23.4,45.4-52.2,45.4S22.6,98.2,22.6,73.1S46,27.7,74.8,27.7c12.3,0,27.2,5.7,32.5,9.8
	c0,0,7.4,4.8-3.6,10.4c-8,4.1-18.8,6.7-18.2,9.9c0.6,3.1,16.8,4.5,18.2,4.5C105,62.3,125.7,62.3,127,73.1z"/>
<path class="st2" d="M36.4,125.9c5.7,3.4,35.1-44.9,27.7-49.6C57.4,72.1,30.7,122.5,36.4,125.9z"/>
<path class="st0" d="M62.8,65.1c-2.3,4.7-2.7,9.2,1.3,11.2c4,2,7.6-0.4,9.9-5.1c2.3-4.7-0.8-12.7-0.8-12.7S65.1,60.4,62.8,65.1z"/>
<circle class="st0" cx="62.2" cy="45.3" r="6.3"/>
<circle class="st0" cx="44.5" cy="59.6" r="6.3"/>
<circle class="st0" cx="40.9" cy="80.7" r="6.3"/>
<circle class="st0" cx="73.4" cy="100.5" r="6.3"/>
<ellipse class="st0" cx="99.1" cy="80.7" rx="11.8" ry="7.8"/>
</svg>
