<?xml version="1.0" encoding="utf-8"?>
<!-- Generator: Adobe Illustrator 19.0.1, SVG Export Plug-In . SVG Version: 6.00 Build 0)  -->
<svg version="1.1" id="Layer_1" xmlns="http://www.w3.org/2000/svg" xmlns:xlink="http://www.w3.org/1999/xlink" x="0px" y="0px"
	 viewBox="0 0 150 150" style="enable-background:new 0 0 150 150;" xml:space="preserve">
<style type="text/css">
	.st0{fill:none;stroke:#373C44;stroke-width:2;stroke-linecap:round;stroke-linejoin:round;stroke-miterlimit:10;}
	.st1{fill:none;stroke:#373C44;stroke-width:2;stroke-miterlimit:10;}
	.st2{fill:#FFFFFF;stroke:#373C44;stroke-width:2;stroke-linecap:round;stroke-linejoin:round;stroke-miterlimit:10;}
</style>
<path class="st0" d="M128.2,125.4H24.3c-2.4,0-4.4-2-4.4-4.4V30.3c0-2.4,2-4.4,4.4-4.4h103.9c2.4,0,4.4,2,4.4,4.4v90.6
	C132.6,123.4,130.6,125.4,128.2,125.4z"/>
<circle class="st1" cx="30.8" cy="37.2" r="3.8"/>
<circle class="st1" cx="44.4" cy="37.2" r="3.8"/>
<circle class="st1" cx="58" cy="37.2" r="3.8"/>
<g>
	<polyline class="st0" points="58,71.3 42,85.9 58,100.5 	"/>
	<polyline class="st0" points="94.4,71.3 110.4,85.9 94.4,100.5 	"/>
	<line class="st0" x1="82.3" y1="68.9" x2="72.7" y2="102.7"/>
</g>
<line class="st0" x1="20.6" y1="48" x2="131.9" y2="48"/>
</svg>
